<mxfile host="65bd71144e">
    <diagram id="xpTfQwLlDye6NHtaUpQL" name="Pagina-1">
        <mxGraphModel dx="4303" dy="2963" grid="1" gridSize="1" guides="1" tooltips="1" connect="1" arrows="1" fold="1" page="0" pageScale="1" pageWidth="827" pageHeight="1169" background="#ffffff" math="0" shadow="1">
            <root>
                <mxCell id="0"/>
                <mxCell id="1" parent="0"/>
                <mxCell id="454" style="edgeStyle=none;rounded=0;orthogonalLoop=1;jettySize=auto;html=1;entryX=0.5;entryY=0;entryDx=0;entryDy=0;strokeColor=#000000;strokeWidth=5;" parent="1" source="141" target="452" edge="1">
                    <mxGeometry relative="1" as="geometry"/>
                </mxCell>
                <mxCell id="141" value="DEPARTMENTS" style="shape=table;startSize=30;container=1;collapsible=0;childLayout=tableLayout;fixedRows=1;rowLines=0;fontStyle=1;align=center;swimlaneFillColor=#ffffff;fontSize=25;" parent="1" vertex="1">
                    <mxGeometry x="653" y="-1154" width="387" height="273" as="geometry"/>
                </mxCell>
                <mxCell id="142" value="" style="shape=partialRectangle;html=1;whiteSpace=wrap;collapsible=0;dropTarget=0;pointerEvents=0;fillColor=none;top=0;left=0;bottom=1;right=0;points=[[0,0.5],[1,0.5]];portConstraint=eastwest;" parent="141" vertex="1">
                    <mxGeometry y="30" width="387" height="30" as="geometry"/>
                </mxCell>
                <mxCell id="143" value="&lt;font style=&quot;font-size: 20px&quot;&gt;PK&lt;/font&gt;" style="shape=partialRectangle;html=1;whiteSpace=wrap;connectable=0;fillColor=none;top=0;left=0;bottom=0;right=0;overflow=hidden;labelBackgroundColor=none;labelBorderColor=none;fontColor=#000000;" parent="142" vertex="1">
                    <mxGeometry width="86" height="30" as="geometry"/>
                </mxCell>
                <mxCell id="144" value="Id" style="shape=partialRectangle;html=1;whiteSpace=wrap;connectable=0;fillColor=none;top=0;left=0;bottom=0;right=0;align=left;spacingLeft=6;overflow=hidden;labelBackgroundColor=none;labelBorderColor=none;fontColor=#000000;fontSize=20;" parent="142" vertex="1">
                    <mxGeometry x="86" width="301" height="30" as="geometry"/>
                </mxCell>
                <mxCell id="145" value="" style="shape=partialRectangle;html=1;whiteSpace=wrap;collapsible=0;dropTarget=0;pointerEvents=0;fillColor=none;top=0;left=0;bottom=0;right=0;points=[[0,0.5],[1,0.5]];portConstraint=eastwest;" parent="141" vertex="1">
                    <mxGeometry y="60" width="387" height="23" as="geometry"/>
                </mxCell>
                <mxCell id="146" value="" style="shape=partialRectangle;html=1;whiteSpace=wrap;connectable=0;fillColor=none;top=0;left=0;bottom=0;right=0;overflow=hidden;labelBackgroundColor=none;labelBorderColor=none;fontColor=#000000;" parent="145" vertex="1">
                    <mxGeometry width="86" height="23" as="geometry"/>
                </mxCell>
                <mxCell id="147" value="name" style="shape=partialRectangle;html=1;whiteSpace=wrap;connectable=0;fillColor=none;top=0;left=0;bottom=0;right=0;align=left;spacingLeft=6;overflow=hidden;labelBackgroundColor=none;labelBorderColor=none;fontColor=#000000;fontSize=20;" parent="145" vertex="1">
                    <mxGeometry x="86" width="301" height="23" as="geometry"/>
                </mxCell>
                <mxCell id="148" value="" style="shape=partialRectangle;html=1;whiteSpace=wrap;collapsible=0;dropTarget=0;pointerEvents=0;fillColor=none;top=0;left=0;bottom=0;right=0;points=[[0,0.5],[1,0.5]];portConstraint=eastwest;" parent="141" vertex="1">
                    <mxGeometry y="83" width="387" height="30" as="geometry"/>
                </mxCell>
                <mxCell id="149" value="" style="shape=partialRectangle;html=1;whiteSpace=wrap;connectable=0;fillColor=none;top=0;left=0;bottom=0;right=0;overflow=hidden;labelBackgroundColor=none;labelBorderColor=none;fontColor=#000000;" parent="148" vertex="1">
                    <mxGeometry width="86" height="30" as="geometry"/>
                </mxCell>
                <mxCell id="150" value="address" style="shape=partialRectangle;html=1;whiteSpace=wrap;connectable=0;fillColor=none;top=0;left=0;bottom=0;right=0;align=left;spacingLeft=6;overflow=hidden;labelBackgroundColor=none;labelBorderColor=none;fontColor=#000000;fontSize=20;" parent="148" vertex="1">
                    <mxGeometry x="86" width="301" height="30" as="geometry"/>
                </mxCell>
                <mxCell id="175" value="" style="shape=partialRectangle;html=1;whiteSpace=wrap;collapsible=0;dropTarget=0;pointerEvents=0;fillColor=none;top=0;left=0;bottom=0;right=0;points=[[0,0.5],[1,0.5]];portConstraint=eastwest;" parent="141" vertex="1">
                    <mxGeometry y="113" width="387" height="30" as="geometry"/>
                </mxCell>
                <mxCell id="176" value="" style="shape=partialRectangle;html=1;whiteSpace=wrap;connectable=0;fillColor=none;top=0;left=0;bottom=0;right=0;overflow=hidden;labelBackgroundColor=none;labelBorderColor=none;fontColor=#000000;" parent="175" vertex="1">
                    <mxGeometry width="86" height="30" as="geometry"/>
                </mxCell>
                <mxCell id="177" value="city" style="shape=partialRectangle;html=1;whiteSpace=wrap;connectable=0;fillColor=none;top=0;left=0;bottom=0;right=0;align=left;spacingLeft=6;overflow=hidden;labelBackgroundColor=none;labelBorderColor=none;fontColor=#000000;fontSize=20;" parent="175" vertex="1">
                    <mxGeometry x="86" width="301" height="30" as="geometry"/>
                </mxCell>
                <mxCell id="178" value="" style="shape=partialRectangle;html=1;whiteSpace=wrap;collapsible=0;dropTarget=0;pointerEvents=0;fillColor=none;top=0;left=0;bottom=0;right=0;points=[[0,0.5],[1,0.5]];portConstraint=eastwest;" parent="141" vertex="1">
                    <mxGeometry y="143" width="387" height="30" as="geometry"/>
                </mxCell>
                <mxCell id="179" value="" style="shape=partialRectangle;html=1;whiteSpace=wrap;connectable=0;fillColor=none;top=0;left=0;bottom=0;right=0;overflow=hidden;labelBackgroundColor=none;labelBorderColor=none;fontColor=#000000;" parent="178" vertex="1">
                    <mxGeometry width="86" height="30" as="geometry"/>
                </mxCell>
                <mxCell id="180" value="phone" style="shape=partialRectangle;html=1;whiteSpace=wrap;connectable=0;fillColor=none;top=0;left=0;bottom=0;right=0;align=left;spacingLeft=6;overflow=hidden;labelBackgroundColor=none;labelBorderColor=none;fontColor=#000000;fontSize=20;" parent="178" vertex="1">
                    <mxGeometry x="86" width="301" height="30" as="geometry"/>
                </mxCell>
                <mxCell id="181" value="" style="shape=partialRectangle;html=1;whiteSpace=wrap;collapsible=0;dropTarget=0;pointerEvents=0;fillColor=none;top=0;left=0;bottom=0;right=0;points=[[0,0.5],[1,0.5]];portConstraint=eastwest;" parent="141" vertex="1">
                    <mxGeometry y="173" width="387" height="30" as="geometry"/>
                </mxCell>
                <mxCell id="182" value="" style="shape=partialRectangle;html=1;whiteSpace=wrap;connectable=0;fillColor=none;top=0;left=0;bottom=0;right=0;overflow=hidden;labelBackgroundColor=none;labelBorderColor=none;fontColor=#000000;" parent="181" vertex="1">
                    <mxGeometry width="86" height="30" as="geometry"/>
                </mxCell>
                <mxCell id="183" value="e-mail" style="shape=partialRectangle;html=1;whiteSpace=wrap;connectable=0;fillColor=none;top=0;left=0;bottom=0;right=0;align=left;spacingLeft=6;overflow=hidden;labelBackgroundColor=none;labelBorderColor=none;fontColor=#000000;fontSize=20;" parent="181" vertex="1">
                    <mxGeometry x="86" width="301" height="30" as="geometry"/>
                </mxCell>
                <mxCell id="184" value="" style="shape=partialRectangle;html=1;whiteSpace=wrap;collapsible=0;dropTarget=0;pointerEvents=0;fillColor=none;top=0;left=0;bottom=0;right=0;points=[[0,0.5],[1,0.5]];portConstraint=eastwest;" parent="141" vertex="1">
                    <mxGeometry y="203" width="387" height="30" as="geometry"/>
                </mxCell>
                <mxCell id="185" value="" style="shape=partialRectangle;html=1;whiteSpace=wrap;connectable=0;fillColor=none;top=0;left=0;bottom=0;right=0;overflow=hidden;labelBackgroundColor=none;labelBorderColor=none;fontColor=#000000;" parent="184" vertex="1">
                    <mxGeometry width="86" height="30" as="geometry"/>
                </mxCell>
                <mxCell id="186" value="" style="shape=partialRectangle;html=1;whiteSpace=wrap;connectable=0;fillColor=none;top=0;left=0;bottom=0;right=0;align=left;spacingLeft=6;overflow=hidden;labelBackgroundColor=none;labelBorderColor=none;fontColor=#000000;" parent="184" vertex="1">
                    <mxGeometry x="86" width="301" height="30" as="geometry"/>
                </mxCell>
                <mxCell id="437" style="edgeStyle=none;rounded=0;orthogonalLoop=1;jettySize=auto;html=1;entryX=0.551;entryY=-0.018;entryDx=0;entryDy=0;entryPerimeter=0;strokeColor=#000000;strokeWidth=5;startArrow=none;" parent="1" source="456" target="202" edge="1">
                    <mxGeometry relative="1" as="geometry"/>
                </mxCell>
                <mxCell id="438" style="edgeStyle=none;rounded=0;orthogonalLoop=1;jettySize=auto;html=1;entryX=0.5;entryY=0;entryDx=0;entryDy=0;strokeColor=#000000;strokeWidth=5;startArrow=none;" parent="1" source="458" target="374" edge="1">
                    <mxGeometry relative="1" as="geometry"/>
                </mxCell>
                <mxCell id="157" value="COURSES" style="shape=table;startSize=30;container=1;collapsible=0;childLayout=tableLayout;fixedRows=1;rowLines=0;fontStyle=1;align=center;swimlaneFillColor=#ffffff;labelBackgroundColor=none;fillColor=#60a917;strokeColor=#2D7600;fontColor=#ffffff;fontSize=25;" parent="1" vertex="1">
                    <mxGeometry x="653" y="-689" width="387" height="210" as="geometry"/>
                </mxCell>
                <mxCell id="158" value="" style="shape=partialRectangle;html=1;whiteSpace=wrap;collapsible=0;dropTarget=0;pointerEvents=0;fillColor=none;top=0;left=0;bottom=1;right=0;points=[[0,0.5],[1,0.5]];portConstraint=eastwest;" parent="157" vertex="1">
                    <mxGeometry y="30" width="387" height="30" as="geometry"/>
                </mxCell>
                <mxCell id="159" value="PK" style="shape=partialRectangle;html=1;whiteSpace=wrap;connectable=0;fillColor=none;top=0;left=0;bottom=0;right=0;overflow=hidden;labelBackgroundColor=none;labelBorderColor=none;fontColor=#000000;fontSize=20;" parent="158" vertex="1">
                    <mxGeometry width="86" height="30" as="geometry"/>
                </mxCell>
                <mxCell id="160" value="Id" style="shape=partialRectangle;html=1;whiteSpace=wrap;connectable=0;fillColor=none;top=0;left=0;bottom=0;right=0;align=left;spacingLeft=6;overflow=hidden;labelBackgroundColor=none;labelBorderColor=none;fontColor=#000000;fontSize=20;" parent="158" vertex="1">
                    <mxGeometry x="86" width="301" height="30" as="geometry"/>
                </mxCell>
                <mxCell id="194" value="" style="shape=partialRectangle;html=1;whiteSpace=wrap;collapsible=0;dropTarget=0;pointerEvents=0;fillColor=none;top=0;left=0;bottom=1;right=0;points=[[0,0.5],[1,0.5]];portConstraint=eastwest;" parent="157" vertex="1">
                    <mxGeometry y="60" width="387" height="30" as="geometry"/>
                </mxCell>
                <mxCell id="195" value="FK" style="shape=partialRectangle;html=1;whiteSpace=wrap;connectable=0;fillColor=none;top=0;left=0;bottom=0;right=0;overflow=hidden;labelBackgroundColor=none;labelBorderColor=none;fontColor=#000000;fontSize=20;" parent="194" vertex="1">
                    <mxGeometry width="86" height="30" as="geometry"/>
                </mxCell>
                <mxCell id="196" value="department_id" style="shape=partialRectangle;html=1;whiteSpace=wrap;connectable=0;fillColor=none;top=0;left=0;bottom=0;right=0;align=left;spacingLeft=6;overflow=hidden;labelBackgroundColor=none;labelBorderColor=none;fontColor=#000000;fontSize=20;" parent="194" vertex="1">
                    <mxGeometry x="86" width="301" height="30" as="geometry"/>
                </mxCell>
                <mxCell id="199" value="" style="shape=partialRectangle;html=1;whiteSpace=wrap;collapsible=0;dropTarget=0;pointerEvents=0;fillColor=none;top=0;left=0;bottom=1;right=0;points=[[0,0.5],[1,0.5]];portConstraint=eastwest;" parent="157" vertex="1">
                    <mxGeometry y="90" width="387" height="30" as="geometry"/>
                </mxCell>
                <mxCell id="200" value="" style="shape=partialRectangle;html=1;whiteSpace=wrap;connectable=0;fillColor=none;top=0;left=0;bottom=0;right=0;overflow=hidden;labelBackgroundColor=none;labelBorderColor=none;fontColor=#000000;" parent="199" vertex="1">
                    <mxGeometry width="86" height="30" as="geometry"/>
                </mxCell>
                <mxCell id="201" value="name" style="shape=partialRectangle;html=1;whiteSpace=wrap;connectable=0;fillColor=none;top=0;left=0;bottom=0;right=0;align=left;spacingLeft=6;overflow=hidden;labelBackgroundColor=none;labelBorderColor=none;fontColor=#000000;fontSize=20;" parent="199" vertex="1">
                    <mxGeometry x="86" width="301" height="30" as="geometry"/>
                </mxCell>
                <mxCell id="496" value="" style="shape=partialRectangle;html=1;whiteSpace=wrap;collapsible=0;dropTarget=0;pointerEvents=0;fillColor=none;top=0;left=0;bottom=1;right=0;points=[[0,0.5],[1,0.5]];portConstraint=eastwest;" parent="157" vertex="1">
                    <mxGeometry y="120" width="387" height="30" as="geometry"/>
                </mxCell>
                <mxCell id="497" value="" style="shape=partialRectangle;html=1;whiteSpace=wrap;connectable=0;fillColor=none;top=0;left=0;bottom=0;right=0;overflow=hidden;labelBackgroundColor=none;labelBorderColor=none;fontColor=#000000;" parent="496" vertex="1">
                    <mxGeometry width="86" height="30" as="geometry"/>
                </mxCell>
                <mxCell id="498" value="subjects_num" style="shape=partialRectangle;html=1;whiteSpace=wrap;connectable=0;fillColor=none;top=0;left=0;bottom=0;right=0;align=left;spacingLeft=6;overflow=hidden;labelBackgroundColor=none;labelBorderColor=none;fontColor=#000000;fontSize=20;" parent="496" vertex="1">
                    <mxGeometry x="86" width="301" height="30" as="geometry"/>
                </mxCell>
                <mxCell id="499" value="" style="shape=partialRectangle;html=1;whiteSpace=wrap;collapsible=0;dropTarget=0;pointerEvents=0;fillColor=none;top=0;left=0;bottom=1;right=0;points=[[0,0.5],[1,0.5]];portConstraint=eastwest;" parent="157" vertex="1">
                    <mxGeometry y="150" width="387" height="30" as="geometry"/>
                </mxCell>
                <mxCell id="500" value="" style="shape=partialRectangle;html=1;whiteSpace=wrap;connectable=0;fillColor=none;top=0;left=0;bottom=0;right=0;overflow=hidden;labelBackgroundColor=none;labelBorderColor=none;fontColor=#000000;" parent="499" vertex="1">
                    <mxGeometry width="86" height="30" as="geometry"/>
                </mxCell>
                <mxCell id="501" value="students_num" style="shape=partialRectangle;html=1;whiteSpace=wrap;connectable=0;fillColor=none;top=0;left=0;bottom=0;right=0;align=left;spacingLeft=6;overflow=hidden;labelBackgroundColor=none;labelBorderColor=none;fontColor=#000000;fontSize=20;" parent="499" vertex="1">
                    <mxGeometry x="86" width="301" height="30" as="geometry"/>
                </mxCell>
                <mxCell id="502" value="" style="shape=partialRectangle;html=1;whiteSpace=wrap;collapsible=0;dropTarget=0;pointerEvents=0;fillColor=none;top=0;left=0;bottom=1;right=0;points=[[0,0.5],[1,0.5]];portConstraint=eastwest;" parent="157" vertex="1">
                    <mxGeometry y="180" width="387" height="30" as="geometry"/>
                </mxCell>
                <mxCell id="503" value="" style="shape=partialRectangle;html=1;whiteSpace=wrap;connectable=0;fillColor=none;top=0;left=0;bottom=0;right=0;overflow=hidden;labelBackgroundColor=none;labelBorderColor=none;fontColor=#000000;" parent="502" vertex="1">
                    <mxGeometry width="86" height="30" as="geometry"/>
                </mxCell>
                <mxCell id="504" value="duration" style="shape=partialRectangle;html=1;whiteSpace=wrap;connectable=0;fillColor=none;top=0;left=0;bottom=0;right=0;align=left;spacingLeft=6;overflow=hidden;labelBackgroundColor=none;labelBorderColor=none;fontColor=#000000;fontSize=20;" parent="502" vertex="1">
                    <mxGeometry x="86" width="301" height="30" as="geometry"/>
                </mxCell>
                <mxCell id="439" style="edgeStyle=none;rounded=0;orthogonalLoop=1;jettySize=auto;html=1;strokeColor=#000000;strokeWidth=5;startArrow=none;" parent="1" source="460" edge="1">
                    <mxGeometry relative="1" as="geometry">
                        <mxPoint x="373" y="192" as="targetPoint"/>
                    </mxGeometry>
                </mxCell>
                <mxCell id="202" value="Subjects" style="shape=table;startSize=30;container=1;collapsible=0;childLayout=tableLayout;fixedRows=1;rowLines=0;fontStyle=1;align=center;swimlaneFillColor=#ffffff;labelBackgroundColor=none;fillColor=#a20025;strokeColor=#6F0000;fontColor=#ffffff;fontSize=25;" parent="1" vertex="1">
                    <mxGeometry x="10" y="-330" width="387" height="300" as="geometry"/>
                </mxCell>
                <mxCell id="203" value="" style="shape=partialRectangle;html=1;whiteSpace=wrap;collapsible=0;dropTarget=0;pointerEvents=0;fillColor=none;top=0;left=0;bottom=1;right=0;points=[[0,0.5],[1,0.5]];portConstraint=eastwest;" parent="202" vertex="1">
                    <mxGeometry y="30" width="387" height="30" as="geometry"/>
                </mxCell>
                <mxCell id="204" value="PK" style="shape=partialRectangle;html=1;whiteSpace=wrap;connectable=0;fillColor=none;top=0;left=0;bottom=0;right=0;overflow=hidden;labelBackgroundColor=none;labelBorderColor=none;fontColor=#000000;fontSize=20;" parent="203" vertex="1">
                    <mxGeometry width="86" height="30" as="geometry"/>
                </mxCell>
                <mxCell id="205" value="Id" style="shape=partialRectangle;html=1;whiteSpace=wrap;connectable=0;fillColor=none;top=0;left=0;bottom=0;right=0;align=left;spacingLeft=6;overflow=hidden;labelBackgroundColor=none;labelBorderColor=none;fontColor=#000000;fontSize=20;" parent="203" vertex="1">
                    <mxGeometry x="86" width="301" height="30" as="geometry"/>
                </mxCell>
                <mxCell id="206" value="" style="shape=partialRectangle;html=1;whiteSpace=wrap;collapsible=0;dropTarget=0;pointerEvents=0;fillColor=none;top=0;left=0;bottom=1;right=0;points=[[0,0.5],[1,0.5]];portConstraint=eastwest;" parent="202" vertex="1">
                    <mxGeometry y="60" width="387" height="30" as="geometry"/>
                </mxCell>
                <mxCell id="207" value="FK" style="shape=partialRectangle;html=1;whiteSpace=wrap;connectable=0;fillColor=none;top=0;left=0;bottom=0;right=0;overflow=hidden;labelBackgroundColor=none;labelBorderColor=none;fontColor=#000000;fontSize=20;" parent="206" vertex="1">
                    <mxGeometry width="86" height="30" as="geometry"/>
                </mxCell>
                <mxCell id="208" value="course_id" style="shape=partialRectangle;html=1;whiteSpace=wrap;connectable=0;fillColor=none;top=0;left=0;bottom=0;right=0;align=left;spacingLeft=6;overflow=hidden;labelBackgroundColor=none;labelBorderColor=none;fontColor=#000000;fontSize=20;" parent="206" vertex="1">
                    <mxGeometry x="86" width="301" height="30" as="geometry"/>
                </mxCell>
                <mxCell id="556" value="" style="shape=partialRectangle;html=1;whiteSpace=wrap;collapsible=0;dropTarget=0;pointerEvents=0;fillColor=none;top=0;left=0;bottom=1;right=0;points=[[0,0.5],[1,0.5]];portConstraint=eastwest;" vertex="1" parent="202">
                    <mxGeometry y="90" width="387" height="30" as="geometry"/>
                </mxCell>
                <mxCell id="557" value="FK" style="shape=partialRectangle;html=1;whiteSpace=wrap;connectable=0;fillColor=none;top=0;left=0;bottom=0;right=0;overflow=hidden;labelBackgroundColor=none;labelBorderColor=none;fontColor=#000000;fontSize=20;" vertex="1" parent="556">
                    <mxGeometry width="86" height="30" as="geometry"/>
                </mxCell>
                <mxCell id="558" value="student_id" style="shape=partialRectangle;html=1;whiteSpace=wrap;connectable=0;fillColor=none;top=0;left=0;bottom=0;right=0;align=left;spacingLeft=6;overflow=hidden;labelBackgroundColor=none;labelBorderColor=none;fontColor=#000000;fontSize=20;" vertex="1" parent="556">
                    <mxGeometry x="86" width="301" height="30" as="geometry"/>
                </mxCell>
                <mxCell id="209" value="" style="shape=partialRectangle;html=1;whiteSpace=wrap;collapsible=0;dropTarget=0;pointerEvents=0;fillColor=none;top=0;left=0;bottom=1;right=0;points=[[0,0.5],[1,0.5]];portConstraint=eastwest;" parent="202" vertex="1">
                    <mxGeometry y="120" width="387" height="30" as="geometry"/>
                </mxCell>
                <mxCell id="210" value="" style="shape=partialRectangle;html=1;whiteSpace=wrap;connectable=0;fillColor=none;top=0;left=0;bottom=0;right=0;overflow=hidden;labelBackgroundColor=none;labelBorderColor=none;fontColor=#000000;" parent="209" vertex="1">
                    <mxGeometry width="86" height="30" as="geometry"/>
                </mxCell>
                <mxCell id="211" value="is_optional" style="shape=partialRectangle;html=1;whiteSpace=wrap;connectable=0;fillColor=none;top=0;left=0;bottom=0;right=0;align=left;spacingLeft=6;overflow=hidden;labelBackgroundColor=none;labelBorderColor=none;fontColor=#000000;fontSize=20;" parent="209" vertex="1">
                    <mxGeometry x="86" width="301" height="30" as="geometry"/>
                </mxCell>
                <mxCell id="505" value="" style="shape=partialRectangle;html=1;whiteSpace=wrap;collapsible=0;dropTarget=0;pointerEvents=0;fillColor=none;top=0;left=0;bottom=1;right=0;points=[[0,0.5],[1,0.5]];portConstraint=eastwest;" parent="202" vertex="1">
                    <mxGeometry y="150" width="387" height="30" as="geometry"/>
                </mxCell>
                <mxCell id="506" value="" style="shape=partialRectangle;html=1;whiteSpace=wrap;connectable=0;fillColor=none;top=0;left=0;bottom=0;right=0;overflow=hidden;labelBackgroundColor=none;labelBorderColor=none;fontColor=#000000;" parent="505" vertex="1">
                    <mxGeometry width="86" height="30" as="geometry"/>
                </mxCell>
                <mxCell id="507" value="students_num" style="shape=partialRectangle;html=1;whiteSpace=wrap;connectable=0;fillColor=none;top=0;left=0;bottom=0;right=0;align=left;spacingLeft=6;overflow=hidden;labelBackgroundColor=none;labelBorderColor=none;fontColor=#000000;fontSize=20;" parent="505" vertex="1">
                    <mxGeometry x="86" width="301" height="30" as="geometry"/>
                </mxCell>
                <mxCell id="508" value="" style="shape=partialRectangle;html=1;whiteSpace=wrap;collapsible=0;dropTarget=0;pointerEvents=0;fillColor=none;top=0;left=0;bottom=1;right=0;points=[[0,0.5],[1,0.5]];portConstraint=eastwest;" parent="202" vertex="1">
                    <mxGeometry y="180" width="387" height="30" as="geometry"/>
                </mxCell>
                <mxCell id="509" value="" style="shape=partialRectangle;html=1;whiteSpace=wrap;connectable=0;fillColor=none;top=0;left=0;bottom=0;right=0;overflow=hidden;labelBackgroundColor=none;labelBorderColor=none;fontColor=#000000;" parent="508" vertex="1">
                    <mxGeometry width="86" height="30" as="geometry"/>
                </mxCell>
                <mxCell id="510" value="teachers_num" style="shape=partialRectangle;html=1;whiteSpace=wrap;connectable=0;fillColor=none;top=0;left=0;bottom=0;right=0;align=left;spacingLeft=6;overflow=hidden;labelBackgroundColor=none;labelBorderColor=none;fontColor=#000000;fontSize=20;" parent="508" vertex="1">
                    <mxGeometry x="86" width="301" height="30" as="geometry"/>
                </mxCell>
                <mxCell id="511" value="" style="shape=partialRectangle;html=1;whiteSpace=wrap;collapsible=0;dropTarget=0;pointerEvents=0;fillColor=none;top=0;left=0;bottom=1;right=0;points=[[0,0.5],[1,0.5]];portConstraint=eastwest;" parent="202" vertex="1">
                    <mxGeometry y="210" width="387" height="30" as="geometry"/>
                </mxCell>
                <mxCell id="512" value="" style="shape=partialRectangle;html=1;whiteSpace=wrap;connectable=0;fillColor=none;top=0;left=0;bottom=0;right=0;overflow=hidden;labelBackgroundColor=none;labelBorderColor=none;fontColor=#000000;" parent="511" vertex="1">
                    <mxGeometry width="86" height="30" as="geometry"/>
                </mxCell>
                <mxCell id="513" value="hours" style="shape=partialRectangle;html=1;whiteSpace=wrap;connectable=0;fillColor=none;top=0;left=0;bottom=0;right=0;align=left;spacingLeft=6;overflow=hidden;labelBackgroundColor=none;labelBorderColor=none;fontColor=#000000;fontSize=20;" parent="511" vertex="1">
                    <mxGeometry x="86" width="301" height="30" as="geometry"/>
                </mxCell>
                <mxCell id="514" value="" style="shape=partialRectangle;html=1;whiteSpace=wrap;collapsible=0;dropTarget=0;pointerEvents=0;fillColor=none;top=0;left=0;bottom=1;right=0;points=[[0,0.5],[1,0.5]];portConstraint=eastwest;" parent="202" vertex="1">
                    <mxGeometry y="240" width="387" height="30" as="geometry"/>
                </mxCell>
                <mxCell id="515" value="" style="shape=partialRectangle;html=1;whiteSpace=wrap;connectable=0;fillColor=none;top=0;left=0;bottom=0;right=0;overflow=hidden;labelBackgroundColor=none;labelBorderColor=none;fontColor=#000000;" parent="514" vertex="1">
                    <mxGeometry width="86" height="30" as="geometry"/>
                </mxCell>
                <mxCell id="516" value="credits" style="shape=partialRectangle;html=1;whiteSpace=wrap;connectable=0;fillColor=none;top=0;left=0;bottom=0;right=0;align=left;spacingLeft=6;overflow=hidden;labelBackgroundColor=none;labelBorderColor=none;fontColor=#000000;fontSize=20;" parent="514" vertex="1">
                    <mxGeometry x="86" width="301" height="30" as="geometry"/>
                </mxCell>
                <mxCell id="517" value="" style="shape=partialRectangle;html=1;whiteSpace=wrap;collapsible=0;dropTarget=0;pointerEvents=0;fillColor=none;top=0;left=0;bottom=1;right=0;points=[[0,0.5],[1,0.5]];portConstraint=eastwest;" parent="202" vertex="1">
                    <mxGeometry y="270" width="387" height="30" as="geometry"/>
                </mxCell>
                <mxCell id="518" value="" style="shape=partialRectangle;html=1;whiteSpace=wrap;connectable=0;fillColor=none;top=0;left=0;bottom=0;right=0;overflow=hidden;labelBackgroundColor=none;labelBorderColor=none;fontColor=#000000;" parent="517" vertex="1">
                    <mxGeometry width="86" height="30" as="geometry"/>
                </mxCell>
                <mxCell id="519" value="mode_of_exam" style="shape=partialRectangle;html=1;whiteSpace=wrap;connectable=0;fillColor=none;top=0;left=0;bottom=0;right=0;align=left;spacingLeft=6;overflow=hidden;labelBackgroundColor=none;labelBorderColor=none;fontColor=#000000;fontSize=20;" parent="517" vertex="1">
                    <mxGeometry x="86" width="301" height="30" as="geometry"/>
                </mxCell>
                <mxCell id="462" style="edgeStyle=none;rounded=0;orthogonalLoop=1;jettySize=auto;html=1;strokeColor=#000000;strokeWidth=5;startArrow=none;" parent="1" source="463" target="353" edge="1">
                    <mxGeometry relative="1" as="geometry"/>
                </mxCell>
                <mxCell id="251" value="Teachers" style="shape=table;startSize=30;container=1;collapsible=0;childLayout=tableLayout;fixedRows=1;rowLines=0;fontStyle=1;align=center;swimlaneFillColor=#ffffff;labelBackgroundColor=none;fillColor=#d80073;strokeColor=#A50040;fontColor=#ffffff;fontSize=25;" parent="1" vertex="1">
                    <mxGeometry x="375" y="89" width="387" height="184" as="geometry"/>
                </mxCell>
                <mxCell id="252" value="" style="shape=partialRectangle;html=1;whiteSpace=wrap;collapsible=0;dropTarget=0;pointerEvents=0;fillColor=none;top=0;left=0;bottom=1;right=0;points=[[0,0.5],[1,0.5]];portConstraint=eastwest;" parent="251" vertex="1">
                    <mxGeometry y="30" width="387" height="30" as="geometry"/>
                </mxCell>
                <mxCell id="253" value="PK" style="shape=partialRectangle;html=1;whiteSpace=wrap;connectable=0;fillColor=none;top=0;left=0;bottom=0;right=0;overflow=hidden;labelBackgroundColor=none;labelBorderColor=none;fontColor=#000000;fontSize=20;" parent="252" vertex="1">
                    <mxGeometry width="86" height="30" as="geometry"/>
                </mxCell>
                <mxCell id="254" value="Id" style="shape=partialRectangle;html=1;whiteSpace=wrap;connectable=0;fillColor=none;top=0;left=0;bottom=0;right=0;align=left;spacingLeft=6;overflow=hidden;labelBackgroundColor=none;labelBorderColor=none;fontColor=#000000;fontSize=20;" parent="252" vertex="1">
                    <mxGeometry x="86" width="301" height="30" as="geometry"/>
                </mxCell>
                <mxCell id="553" value="" style="shape=partialRectangle;html=1;whiteSpace=wrap;collapsible=0;dropTarget=0;pointerEvents=0;fillColor=none;top=0;left=0;bottom=1;right=0;points=[[0,0.5],[1,0.5]];portConstraint=eastwest;" vertex="1" parent="251">
                    <mxGeometry y="60" width="387" height="30" as="geometry"/>
                </mxCell>
                <mxCell id="554" value="FK" style="shape=partialRectangle;html=1;whiteSpace=wrap;connectable=0;fillColor=none;top=0;left=0;bottom=0;right=0;overflow=hidden;labelBackgroundColor=none;labelBorderColor=none;fontColor=#000000;fontSize=20;" vertex="1" parent="553">
                    <mxGeometry width="86" height="30" as="geometry"/>
                </mxCell>
                <mxCell id="555" value="subject_id" style="shape=partialRectangle;html=1;whiteSpace=wrap;connectable=0;fillColor=none;top=0;left=0;bottom=0;right=0;align=left;spacingLeft=6;overflow=hidden;labelBackgroundColor=none;labelBorderColor=none;fontColor=#000000;fontSize=20;" vertex="1" parent="553">
                    <mxGeometry x="86" width="301" height="30" as="geometry"/>
                </mxCell>
                <mxCell id="258" value="" style="shape=partialRectangle;html=1;whiteSpace=wrap;collapsible=0;dropTarget=0;pointerEvents=0;fillColor=none;top=0;left=0;bottom=1;right=0;points=[[0,0.5],[1,0.5]];portConstraint=eastwest;" parent="251" vertex="1">
                    <mxGeometry y="90" width="387" height="30" as="geometry"/>
                </mxCell>
                <mxCell id="259" value="" style="shape=partialRectangle;html=1;whiteSpace=wrap;connectable=0;fillColor=none;top=0;left=0;bottom=0;right=0;overflow=hidden;labelBackgroundColor=none;labelBorderColor=none;fontColor=#000000;" parent="258" vertex="1">
                    <mxGeometry width="86" height="30" as="geometry"/>
                </mxCell>
                <mxCell id="260" value="name" style="shape=partialRectangle;html=1;whiteSpace=wrap;connectable=0;fillColor=none;top=0;left=0;bottom=0;right=0;align=left;spacingLeft=6;overflow=hidden;labelBackgroundColor=none;labelBorderColor=none;fontColor=#000000;fontSize=20;" parent="258" vertex="1">
                    <mxGeometry x="86" width="301" height="30" as="geometry"/>
                </mxCell>
                <mxCell id="261" value="" style="shape=partialRectangle;html=1;whiteSpace=wrap;collapsible=0;dropTarget=0;pointerEvents=0;fillColor=none;top=0;left=0;bottom=0;right=0;points=[[0,0.5],[1,0.5]];portConstraint=eastwest;fontSize=20;" parent="251" vertex="1">
                    <mxGeometry y="120" width="387" height="30" as="geometry"/>
                </mxCell>
                <mxCell id="262" value="" style="shape=partialRectangle;html=1;whiteSpace=wrap;connectable=0;fillColor=none;top=0;left=0;bottom=0;right=0;overflow=hidden;labelBackgroundColor=none;labelBorderColor=none;fontColor=#000000;" parent="261" vertex="1">
                    <mxGeometry width="86" height="30" as="geometry"/>
                </mxCell>
                <mxCell id="263" value="last_name" style="shape=partialRectangle;html=1;whiteSpace=wrap;connectable=0;fillColor=none;top=0;left=0;bottom=0;right=0;align=left;spacingLeft=6;overflow=hidden;labelBackgroundColor=none;labelBorderColor=none;fontColor=#000000;fontSize=20;" parent="261" vertex="1">
                    <mxGeometry x="86" width="301" height="30" as="geometry"/>
                </mxCell>
                <mxCell id="264" value="" style="shape=partialRectangle;html=1;whiteSpace=wrap;collapsible=0;dropTarget=0;pointerEvents=0;fillColor=none;top=0;left=0;bottom=0;right=0;points=[[0,0.5],[1,0.5]];portConstraint=eastwest;" parent="251" vertex="1">
                    <mxGeometry y="150" width="387" height="20" as="geometry"/>
                </mxCell>
                <mxCell id="265" value="" style="shape=partialRectangle;html=1;whiteSpace=wrap;connectable=0;fillColor=none;top=0;left=0;bottom=0;right=0;overflow=hidden;labelBackgroundColor=none;labelBorderColor=none;fontColor=#000000;" parent="264" vertex="1">
                    <mxGeometry width="86" height="20" as="geometry"/>
                </mxCell>
                <mxCell id="266" value="" style="shape=partialRectangle;html=1;whiteSpace=wrap;connectable=0;fillColor=none;top=0;left=0;bottom=0;right=0;align=left;spacingLeft=6;overflow=hidden;labelBackgroundColor=none;labelBorderColor=none;fontColor=#000000;" parent="264" vertex="1">
                    <mxGeometry x="86" width="301" height="20" as="geometry"/>
                </mxCell>
                <mxCell id="449" style="edgeStyle=none;rounded=0;orthogonalLoop=1;jettySize=auto;html=1;strokeColor=#000000;strokeWidth=5;startArrow=none;" parent="1" source="465" edge="1">
                    <mxGeometry relative="1" as="geometry">
                        <mxPoint x="1178" y="311" as="targetPoint"/>
                    </mxGeometry>
                </mxCell>
                <mxCell id="353" value="sessions" style="shape=table;startSize=35;container=1;collapsible=0;childLayout=tableLayout;fixedRows=1;rowLines=0;fontStyle=1;align=center;swimlaneFillColor=#ffffff;labelBackgroundColor=none;fillColor=#6a00ff;strokeColor=#3700CC;fontColor=#ffffff;fontSize=25;" parent="1" vertex="1">
                    <mxGeometry x="368" y="436" width="387" height="194" as="geometry"/>
                </mxCell>
                <mxCell id="354" value="" style="shape=partialRectangle;html=1;whiteSpace=wrap;collapsible=0;dropTarget=0;pointerEvents=0;fillColor=none;top=0;left=0;bottom=1;right=0;points=[[0,0.5],[1,0.5]];portConstraint=eastwest;" parent="353" vertex="1">
                    <mxGeometry y="35" width="387" height="30" as="geometry"/>
                </mxCell>
                <mxCell id="355" value="PK" style="shape=partialRectangle;html=1;whiteSpace=wrap;connectable=0;fillColor=none;top=0;left=0;bottom=0;right=0;overflow=hidden;labelBackgroundColor=none;labelBorderColor=none;fontColor=#000000;fontSize=20;" parent="354" vertex="1">
                    <mxGeometry width="86" height="30" as="geometry"/>
                </mxCell>
                <mxCell id="356" value="id" style="shape=partialRectangle;html=1;whiteSpace=wrap;connectable=0;fillColor=none;top=0;left=0;bottom=0;right=0;align=left;spacingLeft=6;overflow=hidden;labelBackgroundColor=none;labelBorderColor=none;fontColor=#000000;fontSize=20;" parent="354" vertex="1">
                    <mxGeometry x="86" width="301" height="30" as="geometry"/>
                </mxCell>
                <mxCell id="357" value="" style="shape=partialRectangle;html=1;whiteSpace=wrap;collapsible=0;dropTarget=0;pointerEvents=0;fillColor=none;top=0;left=0;bottom=1;right=0;points=[[0,0.5],[1,0.5]];portConstraint=eastwest;" parent="353" vertex="1">
                    <mxGeometry y="65" width="387" height="30" as="geometry"/>
                </mxCell>
                <mxCell id="358" value="FK" style="shape=partialRectangle;html=1;whiteSpace=wrap;connectable=0;fillColor=none;top=0;left=0;bottom=0;right=0;overflow=hidden;labelBackgroundColor=none;labelBorderColor=none;fontColor=#000000;fontSize=20;" parent="357" vertex="1">
                    <mxGeometry width="86" height="30" as="geometry"/>
                </mxCell>
                <mxCell id="359" value="subject-teacher_id" style="shape=partialRectangle;html=1;whiteSpace=wrap;connectable=0;fillColor=none;top=0;left=0;bottom=0;right=0;align=left;spacingLeft=6;overflow=hidden;labelBackgroundColor=none;labelBorderColor=none;fontColor=#000000;fontSize=20;" parent="357" vertex="1">
                    <mxGeometry x="86" width="301" height="30" as="geometry"/>
                </mxCell>
                <mxCell id="360" value="" style="shape=partialRectangle;html=1;whiteSpace=wrap;collapsible=0;dropTarget=0;pointerEvents=0;fillColor=none;top=0;left=0;bottom=0;right=0;points=[[0,0.5],[1,0.5]];portConstraint=eastwest;" parent="353" vertex="1">
                    <mxGeometry y="95" width="387" height="30" as="geometry"/>
                </mxCell>
                <mxCell id="361" value="" style="shape=partialRectangle;html=1;whiteSpace=wrap;connectable=0;fillColor=none;top=0;left=0;bottom=0;right=0;overflow=hidden;labelBackgroundColor=none;labelBorderColor=none;fontColor=#000000;" parent="360" vertex="1">
                    <mxGeometry width="86" height="30" as="geometry"/>
                </mxCell>
                <mxCell id="362" value="&lt;font style=&quot;font-size: 20px&quot;&gt;date&lt;/font&gt;" style="shape=partialRectangle;html=1;whiteSpace=wrap;connectable=0;fillColor=none;top=0;left=0;bottom=0;right=0;align=left;spacingLeft=6;overflow=hidden;labelBackgroundColor=none;labelBorderColor=none;fontColor=#000000;" parent="360" vertex="1">
                    <mxGeometry x="86" width="301" height="30" as="geometry"/>
                </mxCell>
                <mxCell id="363" value="" style="shape=partialRectangle;html=1;whiteSpace=wrap;collapsible=0;dropTarget=0;pointerEvents=0;fillColor=none;top=0;left=0;bottom=0;right=0;points=[[0,0.5],[1,0.5]];portConstraint=eastwest;" parent="353" vertex="1">
                    <mxGeometry y="125" width="387" height="20" as="geometry"/>
                </mxCell>
                <mxCell id="364" value="" style="shape=partialRectangle;html=1;whiteSpace=wrap;connectable=0;fillColor=none;top=0;left=0;bottom=0;right=0;overflow=hidden;labelBackgroundColor=none;labelBorderColor=none;fontColor=#000000;" parent="363" vertex="1">
                    <mxGeometry width="86" height="20" as="geometry"/>
                </mxCell>
                <mxCell id="365" value="" style="shape=partialRectangle;html=1;whiteSpace=wrap;connectable=0;fillColor=none;top=0;left=0;bottom=0;right=0;align=left;spacingLeft=6;overflow=hidden;labelBackgroundColor=none;labelBorderColor=none;fontColor=#000000;" parent="363" vertex="1">
                    <mxGeometry x="86" width="301" height="20" as="geometry"/>
                </mxCell>
                <mxCell id="450" style="edgeStyle=none;rounded=0;orthogonalLoop=1;jettySize=auto;html=1;strokeColor=#000000;strokeWidth=5;startArrow=none;" parent="1" source="480" edge="1">
                    <mxGeometry relative="1" as="geometry">
                        <mxPoint x="1381" y="231" as="targetPoint"/>
                    </mxGeometry>
                </mxCell>
                <mxCell id="374" value="students" style="shape=table;startSize=40;container=1;collapsible=0;childLayout=tableLayout;fixedRows=1;rowLines=0;fontStyle=1;align=center;swimlaneFillColor=#ffffff;labelBackgroundColor=none;fillColor=#e3c800;strokeColor=#B09500;fontColor=#000000;fontSize=25;" parent="1" vertex="1">
                    <mxGeometry x="1278" y="-320" width="387" height="295" as="geometry"/>
                </mxCell>
                <mxCell id="375" value="" style="shape=partialRectangle;html=1;whiteSpace=wrap;collapsible=0;dropTarget=0;pointerEvents=0;fillColor=none;top=0;left=0;bottom=1;right=0;points=[[0,0.5],[1,0.5]];portConstraint=eastwest;" parent="374" vertex="1">
                    <mxGeometry y="40" width="387" height="30" as="geometry"/>
                </mxCell>
                <mxCell id="376" value="PK" style="shape=partialRectangle;html=1;whiteSpace=wrap;connectable=0;fillColor=none;top=0;left=0;bottom=0;right=0;overflow=hidden;labelBackgroundColor=none;labelBorderColor=none;fontColor=#000000;fontSize=20;" parent="375" vertex="1">
                    <mxGeometry width="86" height="30" as="geometry"/>
                </mxCell>
                <mxCell id="377" value="id" style="shape=partialRectangle;html=1;whiteSpace=wrap;connectable=0;fillColor=none;top=0;left=0;bottom=0;right=0;align=left;spacingLeft=6;overflow=hidden;labelBackgroundColor=none;labelBorderColor=none;fontColor=#000000;fontSize=20;" parent="375" vertex="1">
                    <mxGeometry x="86" width="301" height="30" as="geometry"/>
                </mxCell>
                <mxCell id="378" value="" style="shape=partialRectangle;html=1;whiteSpace=wrap;collapsible=0;dropTarget=0;pointerEvents=0;fillColor=none;top=0;left=0;bottom=1;right=0;points=[[0,0.5],[1,0.5]];portConstraint=eastwest;" parent="374" vertex="1">
                    <mxGeometry y="70" width="387" height="30" as="geometry"/>
                </mxCell>
                <mxCell id="379" value="FK" style="shape=partialRectangle;html=1;whiteSpace=wrap;connectable=0;fillColor=none;top=0;left=0;bottom=0;right=0;overflow=hidden;labelBackgroundColor=none;labelBorderColor=none;fontColor=#000000;fontSize=20;" parent="378" vertex="1">
                    <mxGeometry width="86" height="30" as="geometry"/>
                </mxCell>
                <mxCell id="380" value="course_id" style="shape=partialRectangle;html=1;whiteSpace=wrap;connectable=0;fillColor=none;top=0;left=0;bottom=0;right=0;align=left;spacingLeft=6;overflow=hidden;labelBackgroundColor=none;labelBorderColor=none;fontColor=#000000;fontSize=20;" parent="378" vertex="1">
                    <mxGeometry x="86" width="301" height="30" as="geometry"/>
                </mxCell>
                <mxCell id="559" value="" style="shape=partialRectangle;html=1;whiteSpace=wrap;collapsible=0;dropTarget=0;pointerEvents=0;fillColor=none;top=0;left=0;bottom=1;right=0;points=[[0,0.5],[1,0.5]];portConstraint=eastwest;" vertex="1" parent="374">
                    <mxGeometry y="100" width="387" height="30" as="geometry"/>
                </mxCell>
                <mxCell id="560" value="FK" style="shape=partialRectangle;html=1;whiteSpace=wrap;connectable=0;fillColor=none;top=0;left=0;bottom=0;right=0;overflow=hidden;labelBackgroundColor=none;labelBorderColor=none;fontColor=#000000;fontSize=20;" vertex="1" parent="559">
                    <mxGeometry width="86" height="30" as="geometry"/>
                </mxCell>
                <mxCell id="561" value="subject_id" style="shape=partialRectangle;html=1;whiteSpace=wrap;connectable=0;fillColor=none;top=0;left=0;bottom=0;right=0;align=left;spacingLeft=6;overflow=hidden;labelBackgroundColor=none;labelBorderColor=none;fontColor=#000000;fontSize=20;" vertex="1" parent="559">
                    <mxGeometry x="86" width="301" height="30" as="geometry"/>
                </mxCell>
                <mxCell id="484" value="" style="shape=partialRectangle;html=1;whiteSpace=wrap;collapsible=0;dropTarget=0;pointerEvents=0;fillColor=none;top=0;left=0;bottom=1;right=0;points=[[0,0.5],[1,0.5]];portConstraint=eastwest;" parent="374" vertex="1">
                    <mxGeometry y="130" width="387" height="30" as="geometry"/>
                </mxCell>
                <mxCell id="485" value="" style="shape=partialRectangle;html=1;whiteSpace=wrap;connectable=0;fillColor=none;top=0;left=0;bottom=0;right=0;overflow=hidden;labelBackgroundColor=none;labelBorderColor=none;fontColor=#000000;fontSize=20;" parent="484" vertex="1">
                    <mxGeometry width="86" height="30" as="geometry"/>
                </mxCell>
                <mxCell id="486" value="name" style="shape=partialRectangle;html=1;whiteSpace=wrap;connectable=0;fillColor=none;top=0;left=0;bottom=0;right=0;align=left;spacingLeft=6;overflow=hidden;labelBackgroundColor=none;labelBorderColor=none;fontColor=#000000;fontSize=20;" parent="484" vertex="1">
                    <mxGeometry x="86" width="301" height="30" as="geometry"/>
                </mxCell>
                <mxCell id="490" value="" style="shape=partialRectangle;html=1;whiteSpace=wrap;collapsible=0;dropTarget=0;pointerEvents=0;fillColor=none;top=0;left=0;bottom=1;right=0;points=[[0,0.5],[1,0.5]];portConstraint=eastwest;" parent="374" vertex="1">
                    <mxGeometry y="160" width="387" height="30" as="geometry"/>
                </mxCell>
                <mxCell id="491" value="" style="shape=partialRectangle;html=1;whiteSpace=wrap;connectable=0;fillColor=none;top=0;left=0;bottom=0;right=0;overflow=hidden;labelBackgroundColor=none;labelBorderColor=none;fontColor=#000000;fontSize=20;" parent="490" vertex="1">
                    <mxGeometry width="86" height="30" as="geometry"/>
                </mxCell>
                <mxCell id="492" value="last_name" style="shape=partialRectangle;html=1;whiteSpace=wrap;connectable=0;fillColor=none;top=0;left=0;bottom=0;right=0;align=left;spacingLeft=6;overflow=hidden;labelBackgroundColor=none;labelBorderColor=none;fontColor=#000000;fontSize=20;" parent="490" vertex="1">
                    <mxGeometry x="86" width="301" height="30" as="geometry"/>
                </mxCell>
                <mxCell id="528" value="" style="shape=partialRectangle;html=1;whiteSpace=wrap;collapsible=0;dropTarget=0;pointerEvents=0;fillColor=none;top=0;left=0;bottom=1;right=0;points=[[0,0.5],[1,0.5]];portConstraint=eastwest;" vertex="1" parent="374">
                    <mxGeometry y="190" width="387" height="30" as="geometry"/>
                </mxCell>
                <mxCell id="529" value="" style="shape=partialRectangle;html=1;whiteSpace=wrap;connectable=0;fillColor=none;top=0;left=0;bottom=0;right=0;overflow=hidden;labelBackgroundColor=none;labelBorderColor=none;fontColor=#000000;fontSize=20;" vertex="1" parent="528">
                    <mxGeometry width="86" height="30" as="geometry"/>
                </mxCell>
                <mxCell id="530" value="vote_average" style="shape=partialRectangle;html=1;whiteSpace=wrap;connectable=0;fillColor=none;top=0;left=0;bottom=0;right=0;align=left;spacingLeft=6;overflow=hidden;labelBackgroundColor=none;labelBorderColor=none;fontColor=#000000;fontSize=20;" vertex="1" parent="528">
                    <mxGeometry x="86" width="301" height="30" as="geometry"/>
                </mxCell>
                <mxCell id="531" value="" style="shape=partialRectangle;html=1;whiteSpace=wrap;collapsible=0;dropTarget=0;pointerEvents=0;fillColor=none;top=0;left=0;bottom=1;right=0;points=[[0,0.5],[1,0.5]];portConstraint=eastwest;" vertex="1" parent="374">
                    <mxGeometry y="220" width="387" height="30" as="geometry"/>
                </mxCell>
                <mxCell id="532" value="" style="shape=partialRectangle;html=1;whiteSpace=wrap;connectable=0;fillColor=none;top=0;left=0;bottom=0;right=0;overflow=hidden;labelBackgroundColor=none;labelBorderColor=none;fontColor=#000000;fontSize=20;" vertex="1" parent="531">
                    <mxGeometry width="86" height="30" as="geometry"/>
                </mxCell>
                <mxCell id="533" value="student_id" style="shape=partialRectangle;html=1;whiteSpace=wrap;connectable=0;fillColor=none;top=0;left=0;bottom=0;right=0;align=left;spacingLeft=6;overflow=hidden;labelBackgroundColor=none;labelBorderColor=none;fontColor=#000000;fontSize=20;" vertex="1" parent="531">
                    <mxGeometry x="86" width="301" height="30" as="geometry"/>
                </mxCell>
                <mxCell id="384" value="" style="shape=partialRectangle;html=1;whiteSpace=wrap;collapsible=0;dropTarget=0;pointerEvents=0;fillColor=none;top=0;left=0;bottom=0;right=0;points=[[0,0.5],[1,0.5]];portConstraint=eastwest;" parent="374" vertex="1">
                    <mxGeometry y="250" width="387" height="20" as="geometry"/>
                </mxCell>
                <mxCell id="385" value="" style="shape=partialRectangle;html=1;whiteSpace=wrap;connectable=0;fillColor=none;top=0;left=0;bottom=0;right=0;overflow=hidden;labelBackgroundColor=none;labelBorderColor=none;fontColor=#000000;" parent="384" vertex="1">
                    <mxGeometry width="86" height="20" as="geometry"/>
                </mxCell>
                <mxCell id="386" value="" style="shape=partialRectangle;html=1;whiteSpace=wrap;connectable=0;fillColor=none;top=0;left=0;bottom=0;right=0;align=left;spacingLeft=6;overflow=hidden;labelBackgroundColor=none;labelBorderColor=none;fontColor=#000000;" parent="384" vertex="1">
                    <mxGeometry x="86" width="301" height="20" as="geometry"/>
                </mxCell>
                <mxCell id="423" value="Grades" style="shape=table;startSize=40;container=1;collapsible=0;childLayout=tableLayout;fixedRows=1;rowLines=0;fontStyle=1;align=center;swimlaneFillColor=#ffffff;labelBackgroundColor=none;fillColor=#1ba1e2;strokeColor=#006EAF;fontColor=#ffffff;fontSize=25;" parent="1" vertex="1">
                    <mxGeometry x="995" y="147" width="387" height="198" as="geometry"/>
                </mxCell>
                <mxCell id="547" value="" style="shape=partialRectangle;html=1;whiteSpace=wrap;collapsible=0;dropTarget=0;pointerEvents=0;fillColor=none;top=0;left=0;bottom=1;right=0;points=[[0,0.5],[1,0.5]];portConstraint=eastwest;" vertex="1" parent="423">
                    <mxGeometry y="40" width="387" height="30" as="geometry"/>
                </mxCell>
                <mxCell id="548" value="PK" style="shape=partialRectangle;html=1;whiteSpace=wrap;connectable=0;fillColor=none;top=0;left=0;bottom=0;right=0;overflow=hidden;labelBackgroundColor=none;labelBorderColor=none;fontColor=#000000;fontSize=20;" vertex="1" parent="547">
                    <mxGeometry width="86" height="30" as="geometry"/>
                </mxCell>
                <mxCell id="549" value="id" style="shape=partialRectangle;html=1;whiteSpace=wrap;connectable=0;fillColor=none;top=0;left=0;bottom=0;right=0;align=left;spacingLeft=6;overflow=hidden;labelBackgroundColor=none;labelBorderColor=none;fontColor=#000000;fontSize=20;" vertex="1" parent="547">
                    <mxGeometry x="86" width="301" height="30" as="geometry"/>
                </mxCell>
                <mxCell id="424" value="" style="shape=partialRectangle;html=1;whiteSpace=wrap;collapsible=0;dropTarget=0;pointerEvents=0;fillColor=none;top=0;left=0;bottom=1;right=0;points=[[0,0.5],[1,0.5]];portConstraint=eastwest;" parent="423" vertex="1">
                    <mxGeometry y="70" width="387" height="30" as="geometry"/>
                </mxCell>
                <mxCell id="425" value="FK" style="shape=partialRectangle;html=1;whiteSpace=wrap;connectable=0;fillColor=none;top=0;left=0;bottom=0;right=0;overflow=hidden;labelBackgroundColor=none;labelBorderColor=none;fontColor=#000000;fontSize=20;" parent="424" vertex="1">
                    <mxGeometry width="86" height="30" as="geometry"/>
                </mxCell>
                <mxCell id="426" value="student_id" style="shape=partialRectangle;html=1;whiteSpace=wrap;connectable=0;fillColor=none;top=0;left=0;bottom=0;right=0;align=left;spacingLeft=6;overflow=hidden;labelBackgroundColor=none;labelBorderColor=none;fontColor=#000000;fontSize=20;" parent="424" vertex="1">
                    <mxGeometry x="86" width="301" height="30" as="geometry"/>
                </mxCell>
                <mxCell id="427" value="" style="shape=partialRectangle;html=1;whiteSpace=wrap;collapsible=0;dropTarget=0;pointerEvents=0;fillColor=none;top=0;left=0;bottom=1;right=0;points=[[0,0.5],[1,0.5]];portConstraint=eastwest;" parent="423" vertex="1">
                    <mxGeometry y="100" width="387" height="30" as="geometry"/>
                </mxCell>
                <mxCell id="428" value="FK" style="shape=partialRectangle;html=1;whiteSpace=wrap;connectable=0;fillColor=none;top=0;left=0;bottom=0;right=0;overflow=hidden;labelBackgroundColor=none;labelBorderColor=none;fontColor=#000000;fontSize=20;" parent="427" vertex="1">
                    <mxGeometry width="86" height="30" as="geometry"/>
                </mxCell>
                <mxCell id="429" value="course_id" style="shape=partialRectangle;html=1;whiteSpace=wrap;connectable=0;fillColor=none;top=0;left=0;bottom=0;right=0;align=left;spacingLeft=6;overflow=hidden;labelBackgroundColor=none;labelBorderColor=none;fontColor=#000000;fontSize=20;" parent="427" vertex="1">
                    <mxGeometry x="86" width="301" height="30" as="geometry"/>
                </mxCell>
                <mxCell id="493" value="" style="shape=partialRectangle;html=1;whiteSpace=wrap;collapsible=0;dropTarget=0;pointerEvents=0;fillColor=none;top=0;left=0;bottom=0;right=0;points=[[0,0.5],[1,0.5]];portConstraint=eastwest;" parent="423" vertex="1">
                    <mxGeometry y="130" width="387" height="30" as="geometry"/>
                </mxCell>
                <mxCell id="494" value="" style="shape=partialRectangle;html=1;whiteSpace=wrap;connectable=0;fillColor=none;top=0;left=0;bottom=0;right=0;overflow=hidden;labelBackgroundColor=none;labelBorderColor=none;fontColor=#000000;" parent="493" vertex="1">
                    <mxGeometry width="86" height="30" as="geometry"/>
                </mxCell>
                <mxCell id="495" value="&lt;font style=&quot;font-size: 20px&quot;&gt;grade&lt;/font&gt;" style="shape=partialRectangle;html=1;whiteSpace=wrap;connectable=0;fillColor=none;top=0;left=0;bottom=0;right=0;align=left;spacingLeft=6;overflow=hidden;labelBackgroundColor=none;labelBorderColor=none;fontColor=#000000;" parent="493" vertex="1">
                    <mxGeometry x="86" width="301" height="30" as="geometry"/>
                </mxCell>
                <mxCell id="433" value="" style="shape=partialRectangle;html=1;whiteSpace=wrap;collapsible=0;dropTarget=0;pointerEvents=0;fillColor=none;top=0;left=0;bottom=0;right=0;points=[[0,0.5],[1,0.5]];portConstraint=eastwest;" parent="423" vertex="1">
                    <mxGeometry y="160" width="387" height="20" as="geometry"/>
                </mxCell>
                <mxCell id="434" value="" style="shape=partialRectangle;html=1;whiteSpace=wrap;connectable=0;fillColor=none;top=0;left=0;bottom=0;right=0;overflow=hidden;labelBackgroundColor=none;labelBorderColor=none;fontColor=#000000;" parent="433" vertex="1">
                    <mxGeometry width="86" height="20" as="geometry"/>
                </mxCell>
                <mxCell id="435" value="" style="shape=partialRectangle;html=1;whiteSpace=wrap;connectable=0;fillColor=none;top=0;left=0;bottom=0;right=0;align=left;spacingLeft=6;overflow=hidden;labelBackgroundColor=none;labelBorderColor=none;fontColor=#000000;" parent="433" vertex="1">
                    <mxGeometry x="86" width="301" height="20" as="geometry"/>
                </mxCell>
                <mxCell id="455" style="edgeStyle=none;rounded=0;orthogonalLoop=1;jettySize=auto;html=1;entryX=0.5;entryY=0;entryDx=0;entryDy=0;strokeColor=#000000;strokeWidth=5;" parent="1" source="452" target="157" edge="1">
                    <mxGeometry relative="1" as="geometry"/>
                </mxCell>
                <mxCell id="452" value="" style="rhombus;whiteSpace=wrap;html=1;labelBackgroundColor=none;fontSize=25;fontColor=#000000;gradientColor=none;" parent="1" vertex="1">
                    <mxGeometry x="800" y="-832" width="90" height="90" as="geometry"/>
                </mxCell>
                <mxCell id="456" value="" style="rhombus;whiteSpace=wrap;html=1;labelBackgroundColor=none;fontSize=25;fontColor=#000000;gradientColor=none;" parent="1" vertex="1">
                    <mxGeometry x="442" y="-514" width="90" height="90" as="geometry"/>
                </mxCell>
                <mxCell id="457" value="" style="edgeStyle=none;rounded=0;orthogonalLoop=1;jettySize=auto;html=1;entryX=0.551;entryY=-0.018;entryDx=0;entryDy=0;entryPerimeter=0;strokeColor=#000000;strokeWidth=5;endArrow=none;" parent="1" source="157" target="456" edge="1">
                    <mxGeometry relative="1" as="geometry">
                        <mxPoint x="746.3980620155039" y="-478" as="sourcePoint"/>
                        <mxPoint x="588.2370000000001" y="-331.05999999999995" as="targetPoint"/>
                    </mxGeometry>
                </mxCell>
                <mxCell id="458" value="" style="rhombus;whiteSpace=wrap;html=1;labelBackgroundColor=none;fontSize=25;fontColor=#000000;gradientColor=none;" parent="1" vertex="1">
                    <mxGeometry x="1165" y="-527" width="90" height="90" as="geometry"/>
                </mxCell>
                <mxCell id="459" value="" style="edgeStyle=none;rounded=0;orthogonalLoop=1;jettySize=auto;html=1;entryX=0.5;entryY=0;entryDx=0;entryDy=0;strokeColor=#000000;strokeWidth=5;endArrow=none;" parent="1" source="157" target="458" edge="1">
                    <mxGeometry relative="1" as="geometry">
                        <mxPoint x="930.5677966101694" y="-503" as="sourcePoint"/>
                        <mxPoint x="1086.5" y="-330.5" as="targetPoint"/>
                    </mxGeometry>
                </mxCell>
                <mxCell id="460" value="" style="rhombus;whiteSpace=wrap;html=1;labelBackgroundColor=none;fontSize=25;fontColor=#000000;gradientColor=none;" parent="1" vertex="1">
                    <mxGeometry x="103" y="150" width="90" height="90" as="geometry"/>
                </mxCell>
                <mxCell id="461" value="" style="edgeStyle=none;rounded=0;orthogonalLoop=1;jettySize=auto;html=1;strokeColor=#000000;strokeWidth=5;endArrow=none;exitX=0.361;exitY=1.049;exitDx=0;exitDy=0;exitPerimeter=0;" parent="1" source="517" target="460" edge="1">
                    <mxGeometry relative="1" as="geometry">
                        <mxPoint x="567.0593220338983" y="-158" as="sourcePoint"/>
                        <mxPoint x="564.686440677966" y="-18" as="targetPoint"/>
                    </mxGeometry>
                </mxCell>
                <mxCell id="463" value="" style="rhombus;whiteSpace=wrap;html=1;labelBackgroundColor=none;fontSize=25;fontColor=#000000;gradientColor=none;" parent="1" vertex="1">
                    <mxGeometry x="519" y="293" width="90" height="90" as="geometry"/>
                </mxCell>
                <mxCell id="464" value="" style="edgeStyle=none;rounded=0;orthogonalLoop=1;jettySize=auto;html=1;strokeColor=#000000;strokeWidth=5;endArrow=none;" parent="1" source="251" target="463" edge="1">
                    <mxGeometry relative="1" as="geometry">
                        <mxPoint x="565.4028213166143" y="262" as="sourcePoint"/>
                        <mxPoint x="562.6755485893418" y="436" as="targetPoint"/>
                    </mxGeometry>
                </mxCell>
                <mxCell id="465" value="" style="rhombus;whiteSpace=wrap;html=1;labelBackgroundColor=none;fontSize=25;fontColor=#000000;gradientColor=none;" parent="1" vertex="1">
                    <mxGeometry x="1137" y="486" width="90" height="90" as="geometry"/>
                </mxCell>
                <mxCell id="466" value="" style="edgeStyle=none;rounded=0;orthogonalLoop=1;jettySize=auto;html=1;entryX=0;entryY=0.5;entryDx=0;entryDy=0;strokeColor=#000000;strokeWidth=5;endArrow=none;" parent="1" source="353" target="465" edge="1">
                    <mxGeometry relative="1" as="geometry">
                        <mxPoint x="750" y="413.87131952017444" as="sourcePoint"/>
                        <mxPoint x="1015" y="400" as="targetPoint"/>
                    </mxGeometry>
                </mxCell>
                <mxCell id="467" value="*" style="text;html=1;align=center;verticalAlign=middle;resizable=0;points=[];autosize=1;strokeColor=none;fontSize=60;fontColor=#000000;" parent="1" vertex="1">
                    <mxGeometry x="763" y="-757" width="34" height="77" as="geometry"/>
                </mxCell>
                <mxCell id="468" value="1" style="text;html=1;align=center;verticalAlign=middle;resizable=0;points=[];autosize=1;strokeColor=none;fontSize=60;fontColor=#000000;" parent="1" vertex="1">
                    <mxGeometry x="755" y="-878" width="44" height="77" as="geometry"/>
                </mxCell>
                <mxCell id="469" value="1" style="text;html=1;align=center;verticalAlign=middle;resizable=0;points=[];autosize=1;strokeColor=none;fontSize=60;fontColor=#000000;" parent="1" vertex="1">
                    <mxGeometry x="591" y="-626" width="44" height="77" as="geometry"/>
                </mxCell>
                <mxCell id="470" value="*" style="text;html=1;align=center;verticalAlign=middle;resizable=0;points=[];autosize=1;strokeColor=none;fontSize=60;fontColor=#000000;" parent="1" vertex="1">
                    <mxGeometry x="156" y="-437" width="34" height="77" as="geometry"/>
                </mxCell>
                <mxCell id="471" value="*" style="text;html=1;align=center;verticalAlign=middle;resizable=0;points=[];autosize=1;strokeColor=none;fontSize=60;fontColor=#000000;" parent="1" vertex="1">
                    <mxGeometry x="1549" y="-411" width="34" height="77" as="geometry"/>
                </mxCell>
                <mxCell id="472" value="1" style="text;html=1;align=center;verticalAlign=middle;resizable=0;points=[];autosize=1;strokeColor=none;fontSize=60;fontColor=#000000;" parent="1" vertex="1">
                    <mxGeometry x="1051" y="-652" width="44" height="77" as="geometry"/>
                </mxCell>
                <mxCell id="474" value="1" style="text;html=1;align=center;verticalAlign=middle;resizable=0;points=[];autosize=1;strokeColor=none;fontSize=60;fontColor=#000000;" parent="1" vertex="1">
                    <mxGeometry x="180" y="1" width="44" height="77" as="geometry"/>
                </mxCell>
                <mxCell id="475" value="*" style="text;html=1;align=center;verticalAlign=middle;resizable=0;points=[];autosize=1;strokeColor=none;fontSize=60;fontColor=#000000;" parent="1" vertex="1">
                    <mxGeometry x="294" y="119" width="34" height="77" as="geometry"/>
                </mxCell>
                <mxCell id="476" value="1" style="text;html=1;align=center;verticalAlign=middle;resizable=0;points=[];autosize=1;strokeColor=none;fontSize=60;fontColor=#000000;" parent="1" vertex="1">
                    <mxGeometry x="1112" y="358" width="44" height="77" as="geometry"/>
                </mxCell>
                <mxCell id="477" value="*" style="text;html=1;align=center;verticalAlign=middle;resizable=0;points=[];autosize=1;strokeColor=none;fontSize=60;fontColor=#000000;" parent="1" vertex="1">
                    <mxGeometry x="799" y="457" width="34" height="77" as="geometry"/>
                </mxCell>
                <mxCell id="478" value="1" style="text;html=1;align=center;verticalAlign=middle;resizable=0;points=[];autosize=1;strokeColor=none;fontSize=60;fontColor=#000000;" parent="1" vertex="1">
                    <mxGeometry x="1484" y="-39" width="44" height="77" as="geometry"/>
                </mxCell>
                <mxCell id="479" value="*" style="text;html=1;align=center;verticalAlign=middle;resizable=0;points=[];autosize=1;strokeColor=none;fontSize=60;fontColor=#000000;" parent="1" vertex="1">
                    <mxGeometry x="1410" y="140" width="34" height="77" as="geometry"/>
                </mxCell>
                <mxCell id="520" value="*" style="text;html=1;align=center;verticalAlign=middle;resizable=0;points=[];autosize=1;strokeColor=none;fontSize=60;fontColor=#000000;" parent="1" vertex="1">
                    <mxGeometry x="479" y="381" width="34" height="77" as="geometry"/>
                </mxCell>
                <mxCell id="521" value="1" style="text;html=1;align=center;verticalAlign=middle;resizable=0;points=[];autosize=1;strokeColor=none;fontSize=60;fontColor=#000000;" parent="1" vertex="1">
                    <mxGeometry x="473" y="288" width="44" height="77" as="geometry"/>
                </mxCell>
                <mxCell id="526" value="&lt;font style=&quot;font-size: 20px&quot;&gt;classroom&lt;/font&gt;" style="shape=partialRectangle;html=1;whiteSpace=wrap;connectable=0;fillColor=none;top=0;left=0;bottom=0;right=0;align=left;spacingLeft=6;overflow=hidden;labelBackgroundColor=none;labelBorderColor=none;fontColor=#000000;" parent="1" vertex="1">
                    <mxGeometry x="455" y="559" width="301" height="30" as="geometry"/>
                </mxCell>
                <mxCell id="527" value="&lt;font style=&quot;font-size: 20px&quot;&gt;sign_ups&lt;/font&gt;" style="shape=partialRectangle;html=1;whiteSpace=wrap;connectable=0;fillColor=none;top=0;left=0;bottom=0;right=0;align=left;spacingLeft=6;overflow=hidden;labelBackgroundColor=none;labelBorderColor=none;fontColor=#000000;" parent="1" vertex="1">
                    <mxGeometry x="456" y="588" width="301" height="30" as="geometry"/>
                </mxCell>
                <mxCell id="537" style="edgeStyle=orthogonalEdgeStyle;rounded=0;orthogonalLoop=1;jettySize=auto;html=1;strokeColor=#000000;strokeWidth=5;" edge="1" parent="1" source="534" target="484">
                    <mxGeometry relative="1" as="geometry"/>
                </mxCell>
                <mxCell id="539" style="edgeStyle=none;rounded=0;orthogonalLoop=1;jettySize=auto;html=1;strokeColor=#000000;strokeWidth=5;" edge="1" parent="1" source="534" target="505">
                    <mxGeometry relative="1" as="geometry"/>
                </mxCell>
                <mxCell id="534" value="" style="rhombus;whiteSpace=wrap;html=1;labelBackgroundColor=none;fontSize=25;fontColor=#000000;gradientColor=none;" vertex="1" parent="1">
                    <mxGeometry x="793" y="-220" width="90" height="90" as="geometry"/>
                </mxCell>
                <mxCell id="540" value="*" style="text;html=1;align=center;verticalAlign=middle;resizable=0;points=[];autosize=1;strokeColor=none;fontSize=60;fontColor=#000000;" vertex="1" parent="1">
                    <mxGeometry x="543" y="-150" width="34" height="77" as="geometry"/>
                </mxCell>
                <mxCell id="541" value="*" style="text;html=1;align=center;verticalAlign=middle;resizable=0;points=[];autosize=1;strokeColor=none;fontSize=60;fontColor=#000000;" vertex="1" parent="1">
                    <mxGeometry x="1212" y="-145" width="34" height="77" as="geometry"/>
                </mxCell>
                <mxCell id="480" value="" style="rhombus;whiteSpace=wrap;html=1;labelBackgroundColor=none;fontSize=25;fontColor=#000000;gradientColor=none;" parent="1" vertex="1">
                    <mxGeometry x="1500" y="185" width="90" height="90" as="geometry"/>
                </mxCell>
                <mxCell id="545" value="" style="edgeStyle=none;rounded=0;orthogonalLoop=1;jettySize=auto;html=1;strokeColor=#000000;strokeWidth=5;entryX=0.5;entryY=0;entryDx=0;entryDy=0;endArrow=none;" edge="1" parent="1" target="480">
                    <mxGeometry relative="1" as="geometry">
                        <mxPoint x="1548" y="-23" as="sourcePoint"/>
                        <mxPoint x="1188.4999999999995" y="147" as="targetPoint"/>
                    </mxGeometry>
                </mxCell>
            </root>
        </mxGraphModel>
    </diagram>
</mxfile>